<svg xmlns="http://www.w3.org/2000/svg" viewBox="0 0 1400 1050" width="1400" height="1050" font-family="system-ui, -apple-system, 'Segoe UI', sans-serif">
<defs>
  <marker id="arrow" markerWidth="10" markerHeight="7" refX="10" refY="3.5" orient="auto">
    <polygon points="0 0, 10 3.5, 0 7" fill="#94A3B8"/>
  </marker>
  <marker id="arrow-strong" markerWidth="10" markerHeight="7" refX="10" refY="3.5" orient="auto">
    <polygon points="0 0, 10 3.5, 0 7" fill="#475569"/>
  </marker>
  <filter id="shadow" x="-4%" y="-4%" width="108%" height="116%">
    <feDropShadow dx="0" dy="1" stdDeviation="2" flood-opacity="0.08"/>
  </filter>
  <filter id="glow-teal" x="-18%" y="-18%" width="136%" height="136%">
    <feGaussianBlur in="SourceGraphic" stdDeviation="6" result="blur"/>
    <feFlood flood-color="#0D9488" flood-opacity="0.25" result="color"/>
    <feComposite in="color" in2="blur" operator="in" result="glow"/>
    <feMerge><feMergeNode in="glow"/><feMergeNode in="SourceGraphic"/></feMerge>
  </filter>
  <filter id="glow-violet" x="-18%" y="-18%" width="136%" height="136%">
    <feGaussianBlur in="SourceGraphic" stdDeviation="6" result="blur"/>
    <feFlood flood-color="#7C3AED" flood-opacity="0.25" result="color"/>
    <feComposite in="color" in2="blur" operator="in" result="glow"/>
    <feMerge><feMergeNode in="glow"/><feMergeNode in="SourceGraphic"/></feMerge>
  </filter>
  <marker id="arrow-profile" markerWidth="10" markerHeight="7" refX="10" refY="3.5" orient="auto">
    <polygon points="0 0, 10 3.5, 0 7" fill="#0D9488"/>
  </marker>
  <marker id="arrow-solver" markerWidth="10" markerHeight="7" refX="10" refY="3.5" orient="auto">
    <polygon points="0 0, 10 3.5, 0 7" fill="#7C3AED"/>
  </marker>
</defs>
<rect width="1400" height="1050" fill="#FAFBFC" rx="8"/>
<text x="700.0" y="32" text-anchor="middle" font-size="18" font-weight="600" fill="#1E293B">Algorithm Decision DAG — How Early Choices Constrain Later Ones</text>
<text x="28" y="65" font-size="10" fill="#94A3B8" font-weight="500" text-transform="uppercase">USER INPUTS</text>
<text x="28" y="200" font-size="10" fill="#94A3B8" font-weight="500" text-transform="uppercase">RESOLUTION</text>
<text x="28" y="345" font-size="10" fill="#94A3B8" font-weight="500" text-transform="uppercase">STRUCTURE</text>
<text x="28" y="495" font-size="10" fill="#94A3B8" font-weight="500" text-transform="uppercase">LAYOUT (critical pivot)</text>
<text x="28" y="655" font-size="10" fill="#94A3B8" font-weight="500" text-transform="uppercase">PARALLEL RNG CHOICES</text>
<text x="28" y="825" font-size="10" fill="#94A3B8" font-weight="500" text-transform="uppercase">ASSEMBLY</text>
<rect x="590" y="23.0" width="410" height="209.0" rx="16" fill="#0D9488" fill-opacity="0.06" stroke="#0D9488" stroke-opacity="0.18" stroke-width="1.5" stroke-dasharray="6 3"/>
<rect x="235" y="303.0" width="830" height="224.0" rx="16" fill="#7C3AED" fill-opacity="0.05" stroke="#7C3AED" stroke-opacity="0.15" stroke-width="1.5" stroke-dasharray="6 3"/>
<line x1="350" y1="81.0" x2="350" y2="174.0" stroke="#CBD5E1" stroke-width="1.1" marker-end="url(#arrow)"/>
<text x="358.0" y="121.5" text-anchor="start" font-size="10.5" font-style="italic" fill="#64748B">deterministic</text>
<text x="358.0" y="134.5" text-anchor="start" font-size="10.5" font-style="italic" fill="#64748B">sequence</text>
<path d="M700,81.0 C700,122.85 820,132.15 820,174.0" fill="none" stroke="#0D9488" stroke-width="2.5" marker-end="url(#arrow-profile)"/>
<text x="768.0" y="121.5" text-anchor="start" font-size="10.5" font-style="italic" fill="#64748B">sets ALL</text>
<text x="768.0" y="134.5" text-anchor="start" font-size="10.5" font-style="italic" fill="#64748B">proportions</text>
<path d="M820,216.0 C820,262.35 450,272.65 450,319.0" fill="none" stroke="#CBD5E1" stroke-width="1.1" marker-end="url(#arrow)"/>
<text x="627.0" y="261.5" text-anchor="end" font-size="10.5" font-style="italic" fill="#64748B">num_floors,</text>
<text x="627.0" y="274.5" text-anchor="end" font-size="10.5" font-style="italic" fill="#64748B">heights, ornament</text>
<path d="M820,216.0 C820,262.35 900,272.65 900,319.0" fill="none" stroke="#CBD5E1" stroke-width="1.1" marker-end="url(#arrow)"/>
<path d="M1050,81.0 C1050,188.10000000000002 900,211.9 900,319.0" fill="none" stroke="#CBD5E1" stroke-width="1.1" marker-end="url(#arrow)"/>
<text x="967.0" y="194.0" text-anchor="end" font-size="10.5" font-style="italic" fill="#64748B">how many</text>
<text x="967.0" y="207.0" text-anchor="end" font-size="10.5" font-style="italic" fill="#64748B">bays fit</text>
<path d="M350,216.0 C350,262.35 900,272.65 900,319.0" fill="none" stroke="#CBD5E1" stroke-width="1.1" marker-end="url(#arrow)"/>
<path d="M900,361.0 C900,409.6 660,420.4 660,469.0" fill="none" stroke="#7C3AED" stroke-width="2.5" marker-end="url(#arrow-solver)"/>
<text x="772.0" y="409.0" text-anchor="end" font-size="10.5" font-style="italic" fill="#64748B">positions</text>
<text x="772.0" y="422.0" text-anchor="end" font-size="10.5" font-style="italic" fill="#64748B">+ widths</text>
<path d="M330,511.0 C330,492.1 660,487.9 660,469.0" fill="none" stroke="#7C3AED" stroke-width="2.5" marker-end="url(#arrow-solver)"/>
<path d="M350,216.0 C350,329.85 330,355.15 330,469.0" fill="none" stroke="#CBD5E1" stroke-width="1.1" marker-end="url(#arrow)"/>
<path d="M660,511.0 C660,492.1 990,487.9 990,469.0" fill="none" stroke="#CBD5E1" stroke-width="1.1" marker-end="url(#arrow)"/>
<path d="M1050,81.0 C1050,255.6 660,294.4 660,469.0" fill="none" stroke="#7C3AED" stroke-width="2.5" marker-end="url(#arrow-solver)"/>
<path d="M820,216.0 C820,329.85 660,355.15 660,469.0" fill="none" stroke="#7C3AED" stroke-width="2.5" marker-end="url(#arrow-solver)"/>
<text x="732.0" y="336.5" text-anchor="end" font-size="10.5" font-style="italic" fill="#64748B">pier_ratio,</text>
<text x="732.0" y="349.5" text-anchor="end" font-size="10.5" font-style="italic" fill="#64748B">window_ratio</text>
<path d="M350,216.0 C350,401.85 200,443.15 200,629.0" fill="none" stroke="#CBD5E1" stroke-width="1.1" marker-end="url(#arrow)"/>
<path d="M350,216.0 C350,401.85 460,443.15 460,629.0" fill="none" stroke="#CBD5E1" stroke-width="1.1" marker-end="url(#arrow)"/>
<path d="M350,216.0 C350,401.85 730,443.15 730,629.0" fill="none" stroke="#CBD5E1" stroke-width="1.1" marker-end="url(#arrow)"/>
<path d="M350,216.0 C350,401.85 1020,443.15 1020,629.0" fill="none" stroke="#CBD5E1" stroke-width="1.1" marker-end="url(#arrow)"/>
<path d="M660,511.0 C660,640.6 200,669.4 200,799.0" fill="none" stroke="#475569" stroke-width="1.8" marker-end="url(#arrow-strong)"/>
<text x="422.0" y="649.0" text-anchor="end" font-size="10.5" font-style="italic" fill="#64748B">x, width</text>
<text x="422.0" y="662.0" text-anchor="end" font-size="10.5" font-style="italic" fill="#64748B">per floor</text>
<path d="M660,511.0 C660,640.6 410,669.4 410,799.0" fill="none" stroke="#475569" stroke-width="1.8" marker-end="url(#arrow-strong)"/>
<path d="M660,511.0 C660,640.6 640,669.4 640,799.0" fill="none" stroke="#475569" stroke-width="1.8" marker-end="url(#arrow-strong)"/>
<text x="642.0" y="649.0" text-anchor="end" font-size="10.5" font-style="italic" fill="#64748B">shop/door/res</text>
<text x="642.0" y="662.0" text-anchor="end" font-size="10.5" font-style="italic" fill="#64748B">per bay</text>
<path d="M660,511.0 C660,640.6 880,669.4 880,799.0" fill="none" stroke="#475569" stroke-width="1.8" marker-end="url(#arrow-strong)"/>
<text x="778.0" y="649.0" text-anchor="start" font-size="10.5" font-style="italic" fill="#64748B">snap to</text>
<text x="778.0" y="662.0" text-anchor="start" font-size="10.5" font-style="italic" fill="#64748B">bay centres</text>
<path d="M660,511.0 C660,640.6 1100,669.4 1100,799.0" fill="none" stroke="#475569" stroke-width="1.8" marker-end="url(#arrow-strong)"/>
<text x="888.0" y="649.0" text-anchor="start" font-size="10.5" font-style="italic" fill="#64748B">at pier gaps,</text>
<text x="888.0" y="662.0" text-anchor="start" font-size="10.5" font-style="italic" fill="#64748B">away from door</text>
<path d="M450,361.0 C450,558.1 200,601.9 200,799.0" fill="none" stroke="#CBD5E1" stroke-width="1.1" marker-end="url(#arrow)"/>
<text x="317.0" y="574.0" text-anchor="end" font-size="10.5" font-style="italic" fill="#64748B">height =</text>
<text x="317.0" y="587.0" text-anchor="end" font-size="10.5" font-style="italic" fill="#64748B">75% of floor</text>
<path d="M450,361.0 C450,558.1 410,601.9 410,799.0" fill="none" stroke="#CBD5E1" stroke-width="1.1" marker-end="url(#arrow)"/>
<path d="M730,671.0 C730,728.6 880,741.4 880,799.0" fill="none" stroke="#CBD5E1" stroke-width="1.1" marker-end="url(#arrow)"/>
<text x="813.0" y="729.0" text-anchor="start" font-size="10.5" font-style="italic" fill="#64748B">has_dormers</text>
<text x="813.0" y="742.0" text-anchor="start" font-size="10.5" font-style="italic" fill="#64748B">gates existence</text>
<path d="M460,671.0 C460,728.6 640,741.4 640,799.0" fill="none" stroke="#CBD5E1" stroke-width="1.1" marker-end="url(#arrow)"/>
<path d="M200,671.0 C200,728.6 640,741.4 640,799.0" fill="none" stroke="#CBD5E1" stroke-width="1.1" marker-end="url(#arrow)"/>
<path d="M990,511.0 C990,564.1 1020,575.9 1020,629.0" fill="none" stroke="#CBD5E1" stroke-width="1.1" marker-end="url(#arrow)"/>
<rect x="300.0" y="39.0" width="100" height="42" rx="10" fill="#DBEAFE" stroke="#3B82F6" stroke-width="1.5" filter="url(#shadow)"/>
<text x="350" y="65" text-anchor="middle" font-size="13" font-weight="500" fill="#1E293B">seed</text>
<rect x="636.76" y="39.0" width="126.47999999999999" height="42" rx="10" fill="#DBEAFE" stroke="#3B82F6" stroke-width="1.5" filter="url(#shadow)"/>
<text x="700" y="65" text-anchor="middle" font-size="13" font-weight="500" fill="#1E293B">style_preset</text>
<rect x="998.07" y="39.0" width="103.86" height="42" rx="10" fill="#DBEAFE" stroke="#3B82F6" stroke-width="1.5" filter="url(#shadow)"/>
<text x="1050" y="65" text-anchor="middle" font-size="13" font-weight="500" fill="#1E293B">lot_width</text>
<rect x="294.3" y="174.0" width="111.39999999999999" height="42" rx="10" fill="#CCFBF1" stroke="#0D9488" stroke-width="1.5" filter="url(#shadow)"/>
<text x="350" y="200" text-anchor="middle" font-size="13" font-weight="500" fill="#1E293B">Seeded RNG</text>
<rect x="707.75" y="174.0" width="224.5" height="42" rx="10" fill="#CCFBF1" stroke="#0D9488" stroke-width="2.5" filter="url(#glow-teal)"/>
<text x="820" y="200" text-anchor="middle" font-size="13" font-weight="500" fill="#1E293B">Profile (all proportions)</text>
<rect x="341.52" y="319.0" width="216.95999999999998" height="42" rx="10" fill="#CCFBF1" stroke="#0D9488" stroke-width="1.5" filter="url(#shadow)"/>
<text x="450" y="345" text-anchor="middle" font-size="13" font-weight="500" fill="#1E293B">floor sequence + heights</text>
<rect x="848.07" y="319.0" width="103.86" height="42" rx="10" fill="#FEF3C7" stroke="#F59E0B" stroke-width="1.5" filter="url(#shadow)"/>
<text x="900" y="345" text-anchor="middle" font-size="13" font-weight="500" fill="#1E293B">bay_count  ⚙</text>
<rect x="266.76" y="469.0" width="126.47999999999999" height="42" rx="10" fill="#FEF3C7" stroke="#F59E0B" stroke-width="1.5" filter="url(#shadow)"/>
<text x="330" y="495" text-anchor="middle" font-size="13" font-weight="500" fill="#1E293B">door_bay_idx  ⚙</text>
<rect x="577.91" y="469.0" width="164.17999999999998" height="42" rx="10" fill="#EDE9FE" stroke="#8B5CF6" stroke-width="2.5" filter="url(#glow-violet)"/>
<text x="660" y="495" text-anchor="middle" font-size="13" font-weight="500" fill="#1E293B">BAY LAYOUT SOLVER</text>
<rect x="930.53" y="469.0" width="118.94" height="42" rx="10" fill="#FEF3C7" stroke="#F59E0B" stroke-width="1.5" filter="url(#shadow)"/>
<text x="990" y="495" text-anchor="middle" font-size="13" font-weight="500" fill="#1E293B">custom_bays  ⚙</text>
<rect x="140.53" y="629.0" width="118.94" height="42" rx="10" fill="#FEF3C7" stroke="#F59E0B" stroke-width="1.5" filter="url(#shadow)"/>
<text x="200" y="655" text-anchor="middle" font-size="13" font-weight="500" fill="#1E293B">porte_style  ⚙</text>
<rect x="377.91" y="629.0" width="164.17999999999998" height="42" rx="10" fill="#FEF3C7" stroke="#F59E0B" stroke-width="1.5" filter="url(#shadow)"/>
<text x="460" y="655" text-anchor="middle" font-size="13" font-weight="500" fill="#1E293B">ground_floor_type  ⚙</text>
<rect x="659.22" y="629.0" width="141.56" height="42" rx="10" fill="#FEF3C7" stroke="#F59E0B" stroke-width="1.5" filter="url(#shadow)"/>
<text x="730" y="655" text-anchor="middle" font-size="13" font-weight="500" fill="#1E293B">mansard_params  ⚙</text>
<rect x="941.6800000000001" y="629.0" width="156.64" height="42" rx="10" fill="#FEF3C7" stroke="#F59E0B" stroke-width="1.5" filter="url(#shadow)"/>
<text x="1020" y="655" text-anchor="middle" font-size="13" font-weight="500" fill="#1E293B">custom_bay_style  ⚙</text>
<rect x="150.0" y="799.0" width="100" height="42" rx="10" fill="#F1F5F9" stroke="#64748B" stroke-width="1.5" filter="url(#shadow)"/>
<text x="200" y="825" text-anchor="middle" font-size="13" font-weight="500" fill="#1E293B">Windows</text>
<rect x="358.07" y="799.0" width="103.86" height="42" rx="10" fill="#F1F5F9" stroke="#64748B" stroke-width="1.5" filter="url(#shadow)"/>
<text x="410" y="825" text-anchor="middle" font-size="13" font-weight="500" fill="#1E293B">Balconies</text>
<rect x="557.91" y="799.0" width="164.17999999999998" height="42" rx="10" fill="#F1F5F9" stroke="#64748B" stroke-width="1.5" filter="url(#shadow)"/>
<text x="640" y="825" text-anchor="middle" font-size="13" font-weight="500" fill="#1E293B">Ground floor bays</text>
<rect x="830.0" y="799.0" width="100" height="42" rx="10" fill="#F1F5F9" stroke="#64748B" stroke-width="1.5" filter="url(#shadow)"/>
<text x="880" y="825" text-anchor="middle" font-size="13" font-weight="500" fill="#1E293B">Dormers  ⚙</text>
<rect x="1050.0" y="799.0" width="100" height="42" rx="10" fill="#F1F5F9" stroke="#64748B" stroke-width="1.5" filter="url(#shadow)"/>
<text x="1100" y="825" text-anchor="middle" font-size="13" font-weight="500" fill="#1E293B">Chimneys</text>
<line x1="932.25" y1="195" x2="1030" y2="167.0" stroke="#0D9488" stroke-width="1.2" stroke-dasharray="4 3"/>
<rect x="1030" y="112" width="330" height="110" rx="8" fill="white" stroke="#0D9488" stroke-width="1.5"/>
<text x="1044" y="134" font-size="14" font-weight="600" fill="#0D9488">★  TYPICALITY</text>
<text x="1044" y="154" font-size="11" font-weight="400" fill="#334155">The DNA of Haussmann style</text>
<text x="1044" y="172" font-size="10.5" font-weight="400" fill="#64748B">Input: style_preset</text>
<text x="1044" y="188" font-size="10.5" font-weight="400" fill="#64748B">Sets: floor count, heights, pier ratios,</text>
<text x="1044" y="202" font-size="10.5" font-weight="400" fill="#64748B">window proportions, ornament, balcony rules</text>
<line x1="742.09" y1="490" x2="1090" y2="445.0" stroke="#7C3AED" stroke-width="1.2" stroke-dasharray="4 3"/>
<rect x="1090" y="385" width="280" height="120" rx="8" fill="white" stroke="#7C3AED" stroke-width="1.5"/>
<text x="1104" y="407" font-size="14" font-weight="600" fill="#7C3AED">★  HARMONY</text>
<text x="1104" y="427" font-size="11" font-weight="400" fill="#334155">Resolves proportions into positions</text>
<text x="1104" y="445" font-size="10.5" font-weight="400" fill="#64748B">Inputs: bay_count, door_bay_idx,</text>
<text x="1104" y="461" font-size="10.5" font-weight="400" fill="#64748B">lot_width, profile (pier/window ratios)</text>
<text x="1104" y="481" font-size="10.5" font-weight="400" fill="#64748B">Sets: x-position and width for EVERY</text>
<text x="1104" y="495" font-size="10.5" font-weight="400" fill="#64748B">window, balcony, dormer, and chimney</text>
<rect x="30" y="880" width="260" height="155" rx="8" fill="white" stroke="#E2E8F0" stroke-width="1"/>
<text x="44" y="902" font-size="12" font-weight="600" fill="#1E293B">Legend</text>
<rect x="44" y="913" width="16" height="16" rx="3" fill="#DBEAFE" stroke="#3B82F6" stroke-width="1"/>
<text x="68" y="925" font-size="11.5" fill="#334155">User input</text>
<rect x="44" y="935" width="16" height="16" rx="3" fill="#CCFBF1" stroke="#0D9488" stroke-width="1"/>
<text x="68" y="947" font-size="11.5" fill="#334155">Deterministic resolution</text>
<rect x="44" y="957" width="16" height="16" rx="3" fill="#FEF3C7" stroke="#F59E0B" stroke-width="1"/>
<text x="68" y="969" font-size="11.5" fill="#334155">RNG-driven choice</text>
<rect x="44" y="979" width="16" height="16" rx="3" fill="#EDE9FE" stroke="#8B5CF6" stroke-width="1"/>
<text x="68" y="991" font-size="11.5" fill="#334155">Solver / constraint engine</text>
<rect x="44" y="1001" width="16" height="16" rx="3" fill="#F1F5F9" stroke="#64748B" stroke-width="1"/>
<text x="68" y="1013" font-size="11.5" fill="#334155">Final assembly</text>
<text x="48" y="1035" font-size="14" fill="#475569">⚙</text>
<text x="68" y="1035" font-size="11.5" fill="#334155">Overridable via BuildingOverrides</text>
<line x1="1040" y1="995" x2="1080" y2="995" stroke="#475569" stroke-width="2"/>
<text x="1088" y="999" font-size="11" fill="#475569">= strong constraint (narrows downstream space)</text>
<line x1="1040" y1="1015" x2="1080" y2="1015" stroke="#CBD5E1" stroke-width="1.2"/>
<text x="1088" y="1019" font-size="11" fill="#94A3B8">= data flow</text>
</svg>
