<svg xmlns="http://www.w3.org/2000/svg" width="472" height="758" viewBox="0 0 472 758">
<style>text { font-family: "Helvetica Neue", Arial, sans-serif; }</style>
<rect x="0" y="0" width="472" height="758" fill="#D6E8F0"/>
<rect x="0" y="638" width="472" height="120" fill="#8A9A7A"/>
<rect x="80.0" y="220.0" width="312.0" height="418.0" fill="#E8DCC8" stroke="#4A4038" stroke-width="1.0"/>
<rect x="129.4" y="568.6" width="53.2" height="69.4" fill="#5A4030" stroke="#4A4038" stroke-width="1.0"/>
<polygon points="129.4,568.6 129.4,568.6 130.3,561.7 133.0,555.3 137.2,549.8 142.7,545.6 149.1,542.9 156.0,542.0 162.9,542.9 169.3,545.6 174.8,549.8 179.0,555.3 181.7,561.7 182.6,568.6 182.6,568.6" fill="#5A4030" stroke="#4A4038" stroke-width="1.0"/>
<line x1="80.0" y1="638.0" x2="80.0" y2="518.0" stroke="#C0B4A0" stroke-width="0.4"/>
<line x1="128.0" y1="638.0" x2="128.0" y2="518.0" stroke="#C0B4A0" stroke-width="0.4"/>
<rect x="80.0" y="518.0" width="48.0" height="120.0" fill="#DDD4C4" stroke="#E8DCC8" stroke-width="0.0"/>
<line x1="184.0" y1="638.0" x2="184.0" y2="518.0" stroke="#C0B4A0" stroke-width="0.4"/>
<line x1="208.0" y1="638.0" x2="208.0" y2="518.0" stroke="#C0B4A0" stroke-width="0.4"/>
<rect x="184.0" y="518.0" width="24.0" height="120.0" fill="#DDD4C4" stroke="#E8DCC8" stroke-width="0.0"/>
<line x1="264.0" y1="638.0" x2="264.0" y2="518.0" stroke="#C0B4A0" stroke-width="0.4"/>
<line x1="288.0" y1="638.0" x2="288.0" y2="518.0" stroke="#C0B4A0" stroke-width="0.4"/>
<rect x="264.0" y="518.0" width="24.0" height="120.0" fill="#DDD4C4" stroke="#E8DCC8" stroke-width="0.0"/>
<line x1="344.0" y1="638.0" x2="344.0" y2="518.0" stroke="#C0B4A0" stroke-width="0.4"/>
<line x1="392.0" y1="638.0" x2="392.0" y2="518.0" stroke="#C0B4A0" stroke-width="0.4"/>
<rect x="344.0" y="518.0" width="48.0" height="120.0" fill="#DDD4C4" stroke="#E8DCC8" stroke-width="0.0"/>
<rect x="208.0" y="554.0" width="136.0" height="64.0" fill="#4A6078" stroke="#4A4038" stroke-width="1.0"/>
<line x1="208.0" y1="566.8" x2="344.0" y2="566.8" stroke="#8B8070" stroke-width="0.8"/>
<rect x="212.2" y="554.0" width="47.6" height="84.0" fill="#4A6078" stroke="#4A4038" stroke-width="1.0"/>
<rect x="247.9" y="592.8" width="1.6" height="3.2" fill="#8B8070" stroke="#4A4038" stroke-width="0.3"/>
<polygon points="206.6,554.0 203.2,542.0 348.8,542.0 345.4,554.0" fill="#8B2020" stroke="#4A4038" stroke-width="0.6"/>
<rect x="216.5" y="542.0" width="8.5" height="12.0" fill="#A03030" stroke="#4A4038" stroke-width="0.0" opacity="0.35"/>
<rect x="233.5" y="542.0" width="8.5" height="12.0" fill="#A03030" stroke="#4A4038" stroke-width="0.0" opacity="0.35"/>
<rect x="250.5" y="542.0" width="8.5" height="12.0" fill="#A03030" stroke="#4A4038" stroke-width="0.0" opacity="0.35"/>
<rect x="267.5" y="542.0" width="8.5" height="12.0" fill="#A03030" stroke="#4A4038" stroke-width="0.0" opacity="0.35"/>
<rect x="284.5" y="542.0" width="8.5" height="12.0" fill="#A03030" stroke="#4A4038" stroke-width="0.0" opacity="0.35"/>
<rect x="301.5" y="542.0" width="8.5" height="12.0" fill="#A03030" stroke="#4A4038" stroke-width="0.0" opacity="0.35"/>
<rect x="318.5" y="542.0" width="8.5" height="12.0" fill="#A03030" stroke="#4A4038" stroke-width="0.0" opacity="0.35"/>
<rect x="335.5" y="542.0" width="8.5" height="12.0" fill="#A03030" stroke="#4A4038" stroke-width="0.0" opacity="0.35"/>
<rect x="80.0" y="518.0" width="312.0" height="6.0" fill="#C0B49E" stroke="#6B5B4C" stroke-width="0.3"/>
<rect x="82.4" y="524.0" width="2.4" height="2.0" fill="#C0B49E" stroke="#6B5B4C" stroke-width="0.3"/>
<rect x="87.2" y="524.0" width="2.4" height="2.0" fill="#C0B49E" stroke="#6B5B4C" stroke-width="0.3"/>
<rect x="92.0" y="524.0" width="2.4" height="2.0" fill="#C0B49E" stroke="#6B5B4C" stroke-width="0.3"/>
<rect x="96.8" y="524.0" width="2.4" height="2.0" fill="#C0B49E" stroke="#6B5B4C" stroke-width="0.3"/>
<rect x="101.6" y="524.0" width="2.4" height="2.0" fill="#C0B49E" stroke="#6B5B4C" stroke-width="0.3"/>
<rect x="106.4" y="524.0" width="2.4" height="2.0" fill="#C0B49E" stroke="#6B5B4C" stroke-width="0.3"/>
<rect x="111.2" y="524.0" width="2.4" height="2.0" fill="#C0B49E" stroke="#6B5B4C" stroke-width="0.3"/>
<rect x="116.0" y="524.0" width="2.4" height="2.0" fill="#C0B49E" stroke="#6B5B4C" stroke-width="0.3"/>
<rect x="120.8" y="524.0" width="2.4" height="2.0" fill="#C0B49E" stroke="#6B5B4C" stroke-width="0.3"/>
<rect x="125.6" y="524.0" width="2.4" height="2.0" fill="#C0B49E" stroke="#6B5B4C" stroke-width="0.3"/>
<rect x="130.4" y="524.0" width="2.4" height="2.0" fill="#C0B49E" stroke="#6B5B4C" stroke-width="0.3"/>
<rect x="135.2" y="524.0" width="2.4" height="2.0" fill="#C0B49E" stroke="#6B5B4C" stroke-width="0.3"/>
<rect x="140.0" y="524.0" width="2.4" height="2.0" fill="#C0B49E" stroke="#6B5B4C" stroke-width="0.3"/>
<rect x="144.8" y="524.0" width="2.4" height="2.0" fill="#C0B49E" stroke="#6B5B4C" stroke-width="0.3"/>
<rect x="149.6" y="524.0" width="2.4" height="2.0" fill="#C0B49E" stroke="#6B5B4C" stroke-width="0.3"/>
<rect x="154.4" y="524.0" width="2.4" height="2.0" fill="#C0B49E" stroke="#6B5B4C" stroke-width="0.3"/>
<rect x="159.2" y="524.0" width="2.4" height="2.0" fill="#C0B49E" stroke="#6B5B4C" stroke-width="0.3"/>
<rect x="164.0" y="524.0" width="2.4" height="2.0" fill="#C0B49E" stroke="#6B5B4C" stroke-width="0.3"/>
<rect x="168.8" y="524.0" width="2.4" height="2.0" fill="#C0B49E" stroke="#6B5B4C" stroke-width="0.3"/>
<rect x="173.6" y="524.0" width="2.4" height="2.0" fill="#C0B49E" stroke="#6B5B4C" stroke-width="0.3"/>
<rect x="178.4" y="524.0" width="2.4" height="2.0" fill="#C0B49E" stroke="#6B5B4C" stroke-width="0.3"/>
<rect x="183.2" y="524.0" width="2.4" height="2.0" fill="#C0B49E" stroke="#6B5B4C" stroke-width="0.3"/>
<rect x="188.0" y="524.0" width="2.4" height="2.0" fill="#C0B49E" stroke="#6B5B4C" stroke-width="0.3"/>
<rect x="192.8" y="524.0" width="2.4" height="2.0" fill="#C0B49E" stroke="#6B5B4C" stroke-width="0.3"/>
<rect x="197.6" y="524.0" width="2.4" height="2.0" fill="#C0B49E" stroke="#6B5B4C" stroke-width="0.3"/>
<rect x="202.4" y="524.0" width="2.4" height="2.0" fill="#C0B49E" stroke="#6B5B4C" stroke-width="0.3"/>
<rect x="207.2" y="524.0" width="2.4" height="2.0" fill="#C0B49E" stroke="#6B5B4C" stroke-width="0.3"/>
<rect x="212.0" y="524.0" width="2.4" height="2.0" fill="#C0B49E" stroke="#6B5B4C" stroke-width="0.3"/>
<rect x="216.8" y="524.0" width="2.4" height="2.0" fill="#C0B49E" stroke="#6B5B4C" stroke-width="0.3"/>
<rect x="221.6" y="524.0" width="2.4" height="2.0" fill="#C0B49E" stroke="#6B5B4C" stroke-width="0.3"/>
<rect x="226.4" y="524.0" width="2.4" height="2.0" fill="#C0B49E" stroke="#6B5B4C" stroke-width="0.3"/>
<rect x="231.2" y="524.0" width="2.4" height="2.0" fill="#C0B49E" stroke="#6B5B4C" stroke-width="0.3"/>
<rect x="236.0" y="524.0" width="2.4" height="2.0" fill="#C0B49E" stroke="#6B5B4C" stroke-width="0.3"/>
<rect x="240.8" y="524.0" width="2.4" height="2.0" fill="#C0B49E" stroke="#6B5B4C" stroke-width="0.3"/>
<rect x="245.6" y="524.0" width="2.4" height="2.0" fill="#C0B49E" stroke="#6B5B4C" stroke-width="0.3"/>
<rect x="250.4" y="524.0" width="2.4" height="2.0" fill="#C0B49E" stroke="#6B5B4C" stroke-width="0.3"/>
<rect x="255.2" y="524.0" width="2.4" height="2.0" fill="#C0B49E" stroke="#6B5B4C" stroke-width="0.3"/>
<rect x="260.0" y="524.0" width="2.4" height="2.0" fill="#C0B49E" stroke="#6B5B4C" stroke-width="0.3"/>
<rect x="264.8" y="524.0" width="2.4" height="2.0" fill="#C0B49E" stroke="#6B5B4C" stroke-width="0.3"/>
<rect x="269.6" y="524.0" width="2.4" height="2.0" fill="#C0B49E" stroke="#6B5B4C" stroke-width="0.3"/>
<rect x="274.4" y="524.0" width="2.4" height="2.0" fill="#C0B49E" stroke="#6B5B4C" stroke-width="0.3"/>
<rect x="279.2" y="524.0" width="2.4" height="2.0" fill="#C0B49E" stroke="#6B5B4C" stroke-width="0.3"/>
<rect x="284.0" y="524.0" width="2.4" height="2.0" fill="#C0B49E" stroke="#6B5B4C" stroke-width="0.3"/>
<rect x="288.8" y="524.0" width="2.4" height="2.0" fill="#C0B49E" stroke="#6B5B4C" stroke-width="0.3"/>
<rect x="293.6" y="524.0" width="2.4" height="2.0" fill="#C0B49E" stroke="#6B5B4C" stroke-width="0.3"/>
<rect x="298.4" y="524.0" width="2.4" height="2.0" fill="#C0B49E" stroke="#6B5B4C" stroke-width="0.3"/>
<rect x="303.2" y="524.0" width="2.4" height="2.0" fill="#C0B49E" stroke="#6B5B4C" stroke-width="0.3"/>
<rect x="308.0" y="524.0" width="2.4" height="2.0" fill="#C0B49E" stroke="#6B5B4C" stroke-width="0.3"/>
<rect x="312.8" y="524.0" width="2.4" height="2.0" fill="#C0B49E" stroke="#6B5B4C" stroke-width="0.3"/>
<rect x="317.6" y="524.0" width="2.4" height="2.0" fill="#C0B49E" stroke="#6B5B4C" stroke-width="0.3"/>
<rect x="322.4" y="524.0" width="2.4" height="2.0" fill="#C0B49E" stroke="#6B5B4C" stroke-width="0.3"/>
<rect x="327.2" y="524.0" width="2.4" height="2.0" fill="#C0B49E" stroke="#6B5B4C" stroke-width="0.3"/>
<rect x="332.0" y="524.0" width="2.4" height="2.0" fill="#C0B49E" stroke="#6B5B4C" stroke-width="0.3"/>
<rect x="336.8" y="524.0" width="2.4" height="2.0" fill="#C0B49E" stroke="#6B5B4C" stroke-width="0.3"/>
<rect x="341.6" y="524.0" width="2.4" height="2.0" fill="#C0B49E" stroke="#6B5B4C" stroke-width="0.3"/>
<rect x="346.4" y="524.0" width="2.4" height="2.0" fill="#C0B49E" stroke="#6B5B4C" stroke-width="0.3"/>
<rect x="351.2" y="524.0" width="2.4" height="2.0" fill="#C0B49E" stroke="#6B5B4C" stroke-width="0.3"/>
<rect x="356.0" y="524.0" width="2.4" height="2.0" fill="#C0B49E" stroke="#6B5B4C" stroke-width="0.3"/>
<rect x="360.8" y="524.0" width="2.4" height="2.0" fill="#C0B49E" stroke="#6B5B4C" stroke-width="0.3"/>
<rect x="365.6" y="524.0" width="2.4" height="2.0" fill="#C0B49E" stroke="#6B5B4C" stroke-width="0.3"/>
<rect x="370.4" y="524.0" width="2.4" height="2.0" fill="#C0B49E" stroke="#6B5B4C" stroke-width="0.3"/>
<rect x="375.2" y="524.0" width="2.4" height="2.0" fill="#C0B49E" stroke="#6B5B4C" stroke-width="0.3"/>
<rect x="380.0" y="524.0" width="2.4" height="2.0" fill="#C0B49E" stroke="#6B5B4C" stroke-width="0.3"/>
<rect x="384.8" y="524.0" width="2.4" height="2.0" fill="#C0B49E" stroke="#6B5B4C" stroke-width="0.3"/>
<rect x="389.6" y="524.0" width="2.4" height="2.0" fill="#C0B49E" stroke="#6B5B4C" stroke-width="0.3"/>
<line x1="80.0" y1="518.0" x2="392.0" y2="518.0" stroke="#4A4038" stroke-width="1.5"/>
<text x="48.0" y="578.0" font-family="sans-serif" font-size="9" fill="#888" text-anchor="middle">RDC</text>
<line x1="80.0" y1="518.0" x2="392.0" y2="518.0" stroke="#4A4038" stroke-width="0.6"/>
<rect x="138.6" y="426.3" width="34.8" height="69.2" fill="#C8B8A0" stroke="#4A4038" stroke-width="0.8"/>
<rect x="140.6" y="428.3" width="30.8" height="65.2" fill="#4A6078" stroke="#4A4038" stroke-width="0.8"/>
<line x1="156.0" y1="493.5" x2="156.0" y2="428.3" stroke="#8B8070" stroke-width="0.6"/>
<line x1="140.6" y1="454.4" x2="171.4" y2="454.4" stroke="#8B8070" stroke-width="0.6"/>
<rect x="126.0" y="412.0" width="0.0" height="106.0" fill="#C8B8A0" stroke="#4A4038" stroke-width="0.4"/>
<rect x="126.0" y="412.0" width="0.0" height="4.8" fill="#C0B49E" stroke="#6B5B4C" stroke-width="0.3"/>
<rect x="186.0" y="412.0" width="0.0" height="106.0" fill="#C8B8A0" stroke="#4A4038" stroke-width="0.4"/>
<rect x="186.0" y="412.0" width="0.0" height="4.8" fill="#C0B49E" stroke="#6B5B4C" stroke-width="0.3"/>
<rect x="218.6" y="426.3" width="34.8" height="69.2" fill="#C8B8A0" stroke="#4A4038" stroke-width="0.8"/>
<rect x="220.6" y="428.3" width="30.8" height="65.2" fill="#4A6078" stroke="#4A4038" stroke-width="0.8"/>
<line x1="236.0" y1="493.5" x2="236.0" y2="428.3" stroke="#8B8070" stroke-width="0.6"/>
<line x1="220.6" y1="454.4" x2="251.4" y2="454.4" stroke="#8B8070" stroke-width="0.6"/>
<rect x="206.0" y="412.0" width="0.0" height="106.0" fill="#C8B8A0" stroke="#4A4038" stroke-width="0.4"/>
<rect x="206.0" y="412.0" width="0.0" height="4.8" fill="#C0B49E" stroke="#6B5B4C" stroke-width="0.3"/>
<rect x="266.0" y="412.0" width="0.0" height="106.0" fill="#C8B8A0" stroke="#4A4038" stroke-width="0.4"/>
<rect x="266.0" y="412.0" width="0.0" height="4.8" fill="#C0B49E" stroke="#6B5B4C" stroke-width="0.3"/>
<rect x="298.6" y="426.3" width="34.8" height="69.2" fill="#C8B8A0" stroke="#4A4038" stroke-width="0.8"/>
<rect x="300.6" y="428.3" width="30.8" height="65.2" fill="#4A6078" stroke="#4A4038" stroke-width="0.8"/>
<line x1="316.0" y1="493.5" x2="316.0" y2="428.3" stroke="#8B8070" stroke-width="0.6"/>
<line x1="300.6" y1="454.4" x2="331.4" y2="454.4" stroke="#8B8070" stroke-width="0.6"/>
<rect x="286.0" y="412.0" width="0.0" height="106.0" fill="#C8B8A0" stroke="#4A4038" stroke-width="0.4"/>
<rect x="286.0" y="412.0" width="0.0" height="4.8" fill="#C0B49E" stroke="#6B5B4C" stroke-width="0.3"/>
<rect x="346.0" y="412.0" width="0.0" height="106.0" fill="#C8B8A0" stroke="#4A4038" stroke-width="0.4"/>
<rect x="346.0" y="412.0" width="0.0" height="4.8" fill="#C0B49E" stroke="#6B5B4C" stroke-width="0.3"/>
<line x1="80.0" y1="518.0" x2="80.0" y2="412.0" stroke="#C0B4A0" stroke-width="0.4"/>
<line x1="128.0" y1="518.0" x2="128.0" y2="412.0" stroke="#C0B4A0" stroke-width="0.4"/>
<rect x="80.0" y="412.0" width="48.0" height="106.0" fill="#DDD4C4" stroke="#E8DCC8" stroke-width="0.0"/>
<line x1="184.0" y1="518.0" x2="184.0" y2="412.0" stroke="#C0B4A0" stroke-width="0.4"/>
<line x1="208.0" y1="518.0" x2="208.0" y2="412.0" stroke="#C0B4A0" stroke-width="0.4"/>
<rect x="184.0" y="412.0" width="24.0" height="106.0" fill="#DDD4C4" stroke="#E8DCC8" stroke-width="0.0"/>
<line x1="264.0" y1="518.0" x2="264.0" y2="412.0" stroke="#C0B4A0" stroke-width="0.4"/>
<line x1="288.0" y1="518.0" x2="288.0" y2="412.0" stroke="#C0B4A0" stroke-width="0.4"/>
<rect x="264.0" y="412.0" width="24.0" height="106.0" fill="#DDD4C4" stroke="#E8DCC8" stroke-width="0.0"/>
<line x1="344.0" y1="518.0" x2="344.0" y2="412.0" stroke="#C0B4A0" stroke-width="0.4"/>
<line x1="392.0" y1="518.0" x2="392.0" y2="412.0" stroke="#C0B4A0" stroke-width="0.4"/>
<rect x="344.0" y="412.0" width="48.0" height="106.0" fill="#DDD4C4" stroke="#E8DCC8" stroke-width="0.0"/>
<rect x="80.0" y="515.6" width="312.0" height="4.8" fill="#D8CDB8" stroke="#D8CDB8" stroke-width="0.0"/>
<line x1="80.0" y1="520.4" x2="392.0" y2="520.4" stroke="#A09888" stroke-width="0.8"/>
<line x1="80.0" y1="515.6" x2="392.0" y2="515.6" stroke="#C8BCA8" stroke-width="0.4"/>
<text x="48.0" y="465.0" font-family="sans-serif" font-size="9" fill="#888" text-anchor="middle">Noble</text>
<line x1="80.0" y1="412.0" x2="392.0" y2="412.0" stroke="#4A4038" stroke-width="0.6"/>
<rect x="138.6" y="326.0" width="34.8" height="64.0" fill="#D8CCBA" stroke="#4A4038" stroke-width="0.5"/>
<rect x="140.6" y="328.0" width="30.8" height="60.0" fill="#4A6078" stroke="#4A4038" stroke-width="0.8"/>
<line x1="156.0" y1="388.0" x2="156.0" y2="328.0" stroke="#8B8070" stroke-width="0.6"/>
<line x1="140.6" y1="352.0" x2="171.4" y2="352.0" stroke="#8B8070" stroke-width="0.6"/>
<rect x="218.6" y="326.0" width="34.8" height="64.0" fill="#D8CCBA" stroke="#4A4038" stroke-width="0.5"/>
<rect x="220.6" y="328.0" width="30.8" height="60.0" fill="#4A6078" stroke="#4A4038" stroke-width="0.8"/>
<line x1="236.0" y1="388.0" x2="236.0" y2="328.0" stroke="#8B8070" stroke-width="0.6"/>
<line x1="220.6" y1="352.0" x2="251.4" y2="352.0" stroke="#8B8070" stroke-width="0.6"/>
<rect x="298.6" y="326.0" width="34.8" height="64.0" fill="#D8CCBA" stroke="#4A4038" stroke-width="0.5"/>
<rect x="300.6" y="328.0" width="30.8" height="60.0" fill="#4A6078" stroke="#4A4038" stroke-width="0.8"/>
<line x1="316.0" y1="388.0" x2="316.0" y2="328.0" stroke="#8B8070" stroke-width="0.6"/>
<line x1="300.6" y1="352.0" x2="331.4" y2="352.0" stroke="#8B8070" stroke-width="0.6"/>
<line x1="80.0" y1="412.0" x2="80.0" y2="312.0" stroke="#C0B4A0" stroke-width="0.4"/>
<line x1="128.0" y1="412.0" x2="128.0" y2="312.0" stroke="#C0B4A0" stroke-width="0.4"/>
<rect x="80.0" y="312.0" width="48.0" height="100.0" fill="#DDD4C4" stroke="#E8DCC8" stroke-width="0.0"/>
<line x1="184.0" y1="412.0" x2="184.0" y2="312.0" stroke="#C0B4A0" stroke-width="0.4"/>
<line x1="208.0" y1="412.0" x2="208.0" y2="312.0" stroke="#C0B4A0" stroke-width="0.4"/>
<rect x="184.0" y="312.0" width="24.0" height="100.0" fill="#DDD4C4" stroke="#E8DCC8" stroke-width="0.0"/>
<line x1="264.0" y1="412.0" x2="264.0" y2="312.0" stroke="#C0B4A0" stroke-width="0.4"/>
<line x1="288.0" y1="412.0" x2="288.0" y2="312.0" stroke="#C0B4A0" stroke-width="0.4"/>
<rect x="264.0" y="312.0" width="24.0" height="100.0" fill="#DDD4C4" stroke="#E8DCC8" stroke-width="0.0"/>
<line x1="344.0" y1="412.0" x2="344.0" y2="312.0" stroke="#C0B4A0" stroke-width="0.4"/>
<line x1="392.0" y1="412.0" x2="392.0" y2="312.0" stroke="#C0B4A0" stroke-width="0.4"/>
<rect x="344.0" y="312.0" width="48.0" height="100.0" fill="#DDD4C4" stroke="#E8DCC8" stroke-width="0.0"/>
<rect x="80.0" y="409.6" width="312.0" height="4.8" fill="#D8CDB8" stroke="#D8CDB8" stroke-width="0.0"/>
<line x1="80.0" y1="414.4" x2="392.0" y2="414.4" stroke="#A09888" stroke-width="0.8"/>
<line x1="80.0" y1="409.6" x2="392.0" y2="409.6" stroke="#C8BCA8" stroke-width="0.4"/>
<text x="48.0" y="362.0" font-family="sans-serif" font-size="9" fill="#888" text-anchor="middle">Third</text>
<line x1="80.0" y1="312.0" x2="392.0" y2="312.0" stroke="#4A4038" stroke-width="0.6"/>
<rect x="138.6" y="232.7" width="34.8" height="59.2" fill="#D8CCBA" stroke="#4A4038" stroke-width="0.5"/>
<rect x="140.6" y="234.7" width="30.8" height="55.2" fill="#4A6078" stroke="#4A4038" stroke-width="0.8"/>
<line x1="156.0" y1="289.9" x2="156.0" y2="234.7" stroke="#8B8070" stroke-width="0.6"/>
<line x1="140.6" y1="256.8" x2="171.4" y2="256.8" stroke="#8B8070" stroke-width="0.6"/>
<rect x="218.6" y="232.7" width="34.8" height="59.2" fill="#D8CCBA" stroke="#4A4038" stroke-width="0.5"/>
<rect x="220.6" y="234.7" width="30.8" height="55.2" fill="#4A6078" stroke="#4A4038" stroke-width="0.8"/>
<line x1="236.0" y1="289.9" x2="236.0" y2="234.7" stroke="#8B8070" stroke-width="0.6"/>
<line x1="220.6" y1="256.8" x2="251.4" y2="256.8" stroke="#8B8070" stroke-width="0.6"/>
<rect x="298.6" y="232.7" width="34.8" height="59.2" fill="#D8CCBA" stroke="#4A4038" stroke-width="0.5"/>
<rect x="300.6" y="234.7" width="30.8" height="55.2" fill="#4A6078" stroke="#4A4038" stroke-width="0.8"/>
<line x1="316.0" y1="289.9" x2="316.0" y2="234.7" stroke="#8B8070" stroke-width="0.6"/>
<line x1="300.6" y1="256.8" x2="331.4" y2="256.8" stroke="#8B8070" stroke-width="0.6"/>
<line x1="80.0" y1="312.0" x2="80.0" y2="220.0" stroke="#C0B4A0" stroke-width="0.4"/>
<line x1="128.0" y1="312.0" x2="128.0" y2="220.0" stroke="#C0B4A0" stroke-width="0.4"/>
<rect x="80.0" y="220.0" width="48.0" height="92.0" fill="#DDD4C4" stroke="#E8DCC8" stroke-width="0.0"/>
<line x1="184.0" y1="312.0" x2="184.0" y2="220.0" stroke="#C0B4A0" stroke-width="0.4"/>
<line x1="208.0" y1="312.0" x2="208.0" y2="220.0" stroke="#C0B4A0" stroke-width="0.4"/>
<rect x="184.0" y="220.0" width="24.0" height="92.0" fill="#DDD4C4" stroke="#E8DCC8" stroke-width="0.0"/>
<line x1="264.0" y1="312.0" x2="264.0" y2="220.0" stroke="#C0B4A0" stroke-width="0.4"/>
<line x1="288.0" y1="312.0" x2="288.0" y2="220.0" stroke="#C0B4A0" stroke-width="0.4"/>
<rect x="264.0" y="220.0" width="24.0" height="92.0" fill="#DDD4C4" stroke="#E8DCC8" stroke-width="0.0"/>
<line x1="344.0" y1="312.0" x2="344.0" y2="220.0" stroke="#C0B4A0" stroke-width="0.4"/>
<line x1="392.0" y1="312.0" x2="392.0" y2="220.0" stroke="#C0B4A0" stroke-width="0.4"/>
<rect x="344.0" y="220.0" width="48.0" height="92.0" fill="#DDD4C4" stroke="#E8DCC8" stroke-width="0.0"/>
<rect x="80.0" y="309.6" width="312.0" height="4.8" fill="#D8CDB8" stroke="#D8CDB8" stroke-width="0.0"/>
<line x1="80.0" y1="314.4" x2="392.0" y2="314.4" stroke="#A09888" stroke-width="0.8"/>
<line x1="80.0" y1="309.6" x2="392.0" y2="309.6" stroke="#C8BCA8" stroke-width="0.4"/>
<text x="48.0" y="266.0" font-family="sans-serif" font-size="9" fill="#888" text-anchor="middle">Fourth</text>
<rect x="76.0" y="220.0" width="320.0" height="1.6" fill="#B0A898" stroke="#4A4038" stroke-width="0.0"/>
<rect x="76.0" y="212.0" width="320.0" height="8.0" fill="#C0B49E" stroke="#4A4038" stroke-width="0.0"/>
<rect x="76.0" y="212.0" width="320.0" height="8.0" fill="none" stroke="#6B5B4C" stroke-width="0.3"/>
<rect x="360.3" y="35.1" width="31.3" height="176.9" fill="#A09080" stroke="#4A4038" stroke-width="0.6"/>
<rect x="357.2" y="31.9" width="37.6" height="3.2" fill="#A09080" stroke="#4A4038" stroke-width="0.6"/>
<rect x="359.9" y="36.2" width="32.3" height="175.8" fill="#A09080" stroke="#4A4038" stroke-width="0.6"/>
<rect x="356.6" y="33.0" width="38.7" height="3.2" fill="#A09080" stroke="#4A4038" stroke-width="0.6"/>
<polygon points="78.0,212.0 107.1,132.0 364.9,132.0 394.0,212.0" fill="#7A8088" stroke="#4A4038" stroke-width="0.6"/>
<polygon points="107.1,132.0 162.1,112.0 309.9,112.0 364.9,132.0" fill="#6A7078" stroke="#4A4038" stroke-width="0.6"/>
<line x1="107.1" y1="132.0" x2="364.9" y2="132.0" stroke="#4A4038" stroke-width="0.8"/>
<line x1="117.5" y1="212.0" x2="139.3" y2="132.0" stroke="#6A7078" stroke-width="0.3"/>
<line x1="157.0" y1="212.0" x2="171.6" y2="132.0" stroke="#6A7078" stroke-width="0.3"/>
<line x1="196.5" y1="212.0" x2="203.8" y2="132.0" stroke="#6A7078" stroke-width="0.3"/>
<line x1="236.0" y1="212.0" x2="236.0" y2="132.0" stroke="#6A7078" stroke-width="0.3"/>
<line x1="275.5" y1="212.0" x2="268.2" y2="132.0" stroke="#6A7078" stroke-width="0.3"/>
<line x1="315.0" y1="212.0" x2="300.4" y2="132.0" stroke="#6A7078" stroke-width="0.3"/>
<line x1="354.5" y1="212.0" x2="332.7" y2="132.0" stroke="#6A7078" stroke-width="0.3"/>
<rect x="140.6" y="173.2" width="30.8" height="30.8" fill="#888E96" stroke="#4A4038" stroke-width="0.6"/>
<rect x="147.4" y="177.6" width="17.2" height="22.0" fill="#4A6078" stroke="#4A4038" stroke-width="0.5"/>
<polygon points="140.6,173.2 140.6,173.2 141.1,169.2 142.7,165.5 145.1,162.3 148.3,159.9 152.0,158.3 156.0,157.8 160.0,158.3 163.7,159.9 166.9,162.3 169.3,165.5 170.9,169.2 171.4,173.2 171.4,173.2" fill="#888E96" stroke="#4A4038" stroke-width="0.6"/>
<rect x="300.6" y="173.2" width="30.8" height="30.8" fill="#888E96" stroke="#4A4038" stroke-width="0.6"/>
<rect x="307.4" y="177.6" width="17.2" height="22.0" fill="#4A6078" stroke="#4A4038" stroke-width="0.5"/>
<polygon points="300.6,173.2 300.6,173.2 301.1,169.2 302.7,165.5 305.1,162.3 308.3,159.9 312.0,158.3 316.0,157.8 320.0,158.3 323.7,159.9 326.9,162.3 329.3,165.5 330.9,169.2 331.4,173.2 331.4,173.2" fill="#888E96" stroke="#4A4038" stroke-width="0.6"/>
<text x="412.0" y="578.0" font-family="sans-serif" font-size="8" fill="#999" text-anchor="middle">3.00m</text>
<text x="412.0" y="465.0" font-family="sans-serif" font-size="8" fill="#999" text-anchor="middle">2.65m</text>
<text x="412.0" y="362.0" font-family="sans-serif" font-size="8" fill="#999" text-anchor="middle">2.50m</text>
<text x="412.0" y="266.0" font-family="sans-serif" font-size="8" fill="#999" text-anchor="middle">2.30m</text>
<text x="412.0" y="208.0" font-family="sans-serif" font-size="9" fill="#666" text-anchor="middle">Total: 10.4m</text>
<text x="236.0" y="658.0" font-family="sans-serif" font-size="9" fill="#666" text-anchor="middle">7.8m</text>
</svg>